<?xml version="1.0" encoding="utf-8"?>
<!-- Generator: Adobe Adobe Illustrator 24.2.0, SVG Export Plug-In . SVG Version: 6.00 Build 0)  -->
<svg version="1.1" id="Layer_1" xmlns="http://www.w3.org/2000/svg" xmlns:xlink="http://www.w3.org/1999/xlink" x="0px" y="0px"
	 width="64px" height="64px" viewBox="0 0 64 64" style="enable-background:new 0 0 64 64;" xml:space="preserve">
<style type="text/css">
	.st0{fill:none;stroke:#000000;stroke-width:0.5;stroke-miterlimit:10;}
</style>
<g>
	<path class="st0" d="M40.96,11.31c1.86,0.71,3.6,1.61,5.26,2.74c-0.79,1.08-1.56,2.15-2.35,3.23c-1.43-0.94-2.93-1.72-4.56-2.32
		c-0.12,0.49-0.23,0.95-0.34,1.41c-0.31,1.31-0.61,2.63-0.94,3.94c-0.18,0.7-0.32,1.42-0.62,2.07c-0.81,1.79-2.21,2.91-4.12,3.33
		c-1.81,0.4-3.47,0.01-4.94-1.13c-1.15-0.89-1.84-2.08-2.16-3.49c-0.3-1.32-0.62-2.63-0.94-3.94c-0.16-0.68-0.32-1.36-0.48-2.04
		c-0.01-0.04-0.02-0.07-0.04-0.14c-1.62,0.58-3.12,1.36-4.55,2.31c-0.78-1.07-1.56-2.14-2.35-3.23c0.21-0.14,0.41-0.28,0.61-0.41
		c1.26-0.8,2.57-1.49,3.95-2.06c1.49-0.61,3.01-1.08,4.59-1.39c0.33-0.06,0.66-0.12,0.98-0.19c0.07-0.02,0.15-0.07,0.21-0.13
		c0.12-0.13,0.23-0.26,0.34-0.4c2.07,2.04,5.16,1.85,6.99,0.04c0.03,0.02,0.08,0.04,0.1,0.07c0.25,0.36,0.62,0.44,1.02,0.5
		c1.25,0.21,2.47,0.54,3.67,0.96C40.5,11.15,40.72,11.23,40.96,11.31z"/>
	<path class="st0" d="M9.04,28.24c0.4-0.73,0.6-1.49,0.61-2.31c0.01-0.81-0.18-1.56-0.54-2.3c0.05-0.02,0.07-0.05,0.11-0.06
		c0.36-0.13,0.57-0.39,0.75-0.73c1.64-3.09,3.85-5.71,6.59-7.88c0.05-0.04,0.1-0.07,0.17-0.13c0.78,1.08,1.56,2.15,2.31,3.18
		c-0.82,0.79-1.64,1.55-2.43,2.34c-0.41,0.41-0.76,0.87-1.16,1.33c0.19,0.12,0.36,0.23,0.54,0.33c1.73,1.06,3.49,2.07,5.19,3.18
		c3.41,2.21,3.61,7.13,0.41,9.63c-1.23,0.96-2.64,1.37-4.2,1.24c-1.78-0.15-3.56-0.29-5.34-0.43c-0.35-0.03-0.71-0.06-1.12-0.09
		c0.1,0.88,0.16,1.73,0.29,2.57c0.13,0.83,0.33,1.65,0.51,2.51c-1.23,0.4-2.48,0.81-3.76,1.22c-0.06-0.22-0.13-0.43-0.18-0.64
		C7.1,38.59,6.83,35.94,7,33.25c0.04-0.67,0.12-1.35,0.22-2.02c0.04-0.26,0.03-0.49-0.12-0.71c-0.05-0.07-0.08-0.16-0.13-0.27
		C7.84,29.77,8.55,29.13,9.04,28.24z"/>
	<path class="st0" d="M46.78,53.43c-0.75,0.35-1.37,0.85-1.86,1.5c-0.49,0.64-0.78,1.37-0.93,2.17c-0.05-0.01-0.09-0.01-0.12-0.02
		c-0.37-0.11-0.69-0.02-1.04,0.14c-3.15,1.52-6.48,2.32-9.98,2.45c-0.06,0-0.12,0-0.21,0c0.01-1.33,0.01-2.66,0.02-3.93
		c1.13-0.15,2.24-0.28,3.34-0.45c0.57-0.09,1.13-0.25,1.72-0.38c-0.09-0.21-0.16-0.4-0.23-0.59c-0.77-1.88-1.59-3.74-2.3-5.63
		c-1.44-3.8,1.31-7.88,5.37-8.01c1.56-0.05,2.94,0.45,4.12,1.49c1.35,1.17,2.7,2.34,4.05,3.51c0.27,0.23,0.53,0.47,0.85,0.74
		c0.44-0.77,0.9-1.49,1.29-2.24c0.39-0.75,0.71-1.53,1.07-2.32c1.23,0.41,2.48,0.82,3.76,1.24c-0.08,0.21-0.15,0.42-0.23,0.62
		c-1,2.51-2.35,4.8-4.08,6.87c-0.43,0.52-0.9,1.01-1.37,1.5c-0.18,0.19-0.31,0.38-0.32,0.65c0,0.09-0.03,0.18-0.05,0.29
		C48.66,52.9,47.7,53,46.78,53.43z"/>
	<path class="st0" d="M54.38,26.54c0.11,0.82,0.4,1.56,0.88,2.22c0.47,0.66,1.07,1.15,1.8,1.53c-0.02,0.05-0.03,0.08-0.05,0.11
		c-0.21,0.32-0.23,0.65-0.17,1.03c0.51,3.46,0.29,6.88-0.64,10.26c-0.02,0.06-0.04,0.11-0.06,0.2c-1.27-0.4-2.53-0.8-3.74-1.19
		c0.2-1.13,0.4-2.22,0.57-3.32c0.09-0.57,0.1-1.15,0.15-1.76c-0.23,0.02-0.43,0.03-0.63,0.05c-2.02,0.18-4.04,0.4-6.07,0.52
		c-4.06,0.24-7.13-3.6-6.04-7.51c0.42-1.51,1.31-2.67,2.65-3.49c1.52-0.94,3.04-1.88,4.56-2.82c0.3-0.19,0.6-0.37,0.96-0.59
		c-0.6-0.65-1.15-1.3-1.75-1.89c-0.6-0.59-1.25-1.13-1.9-1.72c0.75-1.05,1.52-2.12,2.31-3.22c0.18,0.14,0.35,0.27,0.52,0.4
		c2.1,1.7,3.88,3.68,5.34,5.95c0.37,0.57,0.7,1.16,1.02,1.75c0.13,0.23,0.27,0.41,0.52,0.5c0.08,0.03,0.16,0.08,0.27,0.13
		C54.43,24.59,54.24,25.53,54.38,26.54z"/>
	<path class="st0" d="M18.7,54.51c-0.57-0.61-1.23-1.04-2-1.31c-0.76-0.26-1.54-0.32-2.35-0.22c-0.01-0.05-0.02-0.09-0.02-0.12
		c-0.01-0.38-0.19-0.67-0.46-0.94c-2.41-2.53-4.2-5.46-5.4-8.74c-0.02-0.06-0.04-0.11-0.07-0.2c1.27-0.4,2.53-0.8,3.74-1.19
		c0.49,1.03,0.95,2.05,1.45,3.04c0.26,0.51,0.58,1,0.89,1.52c0.18-0.15,0.33-0.27,0.49-0.4c1.55-1.31,3.07-2.66,4.65-3.92
		c3.17-2.54,7.9-1.18,9.27,2.65c0.53,1.47,0.47,2.94-0.15,4.38c-0.7,1.64-1.4,3.29-2.09,4.93c-0.14,0.33-0.28,0.65-0.44,1.03
		c0.87,0.19,1.69,0.4,2.53,0.54c0.83,0.14,1.67,0.21,2.54,0.31c-0.01,1.29-0.02,2.61-0.03,3.96c-0.23-0.01-0.44-0.01-0.66-0.03
		c-2.69-0.18-5.29-0.76-7.8-1.78c-0.63-0.25-1.24-0.54-1.85-0.84c-0.24-0.12-0.46-0.18-0.72-0.11c-0.09,0.02-0.18,0.03-0.29,0.04
		C19.78,56.13,19.39,55.25,18.7,54.51z"/>
	<path class="st0" d="M34.9,9.16c-1.14,1.01-2.44,1.35-3.9,1c-1.25-0.3-2.17-1.05-2.75-2.2c-0.68-1.35-0.64-2.7,0.11-4.01
		c0.83-1.46,2.38-2.29,4.15-2.09c1.83,0.21,3.31,1.55,3.65,3.35C36.44,6.73,36.02,8.06,34.9,9.16z"/>
	<path class="st0" d="M7.63,28.96c-1.14,1.01-2.44,1.35-3.9,1c-1.25-0.3-2.17-1.05-2.75-2.2c-0.68-1.35-0.64-2.7,0.11-4.01
		c0.83-1.46,2.38-2.29,4.15-2.09c1.83,0.21,3.31,1.55,3.65,3.35C9.18,26.54,8.75,27.86,7.63,28.96z"/>
	<path class="st0" d="M17.11,61.67c-1.9,0.97-4.28,0.43-5.47-1.41c-1.06-1.63-0.95-3.57,0.29-5.07c0.73-0.88,1.69-1.35,2.84-1.48
		c1.73-0.19,3.53,0.84,4.22,2.43C19.92,58.27,19.16,60.53,17.11,61.67z"/>
	<path class="st0" d="M56.22,28.6c-0.71-0.78-1.13-1.68-1.16-2.72c-0.05-1.44,0.48-2.66,1.64-3.54c1.74-1.33,4-1.17,5.58,0.34
		c1.22,1.17,1.58,3.14,0.86,4.73c-1.21,2.65-4.59,3.33-6.73,1.36C56.34,28.71,56.29,28.66,56.22,28.6z"/>
	<path class="st0" d="M49.57,53.76c2.26,0.36,3.84,2.54,3.47,4.79c-0.27,1.63-1.19,2.78-2.74,3.33c-1.58,0.57-3.07,0.28-4.3-0.87
		c-1.27-1.19-1.68-2.69-1.15-4.35c0.53-1.69,1.74-2.67,3.5-2.92C48.74,53.69,49.15,53.75,49.57,53.76z"/>
</g>
</svg>
