<?xml version="1.0" encoding="utf-8"?>
<!-- Generator: Adobe Adobe Illustrator 24.2.0, SVG Export Plug-In . SVG Version: 6.00 Build 0)  -->
<svg version="1.1" id="Layer_1" xmlns="http://www.w3.org/2000/svg" xmlns:xlink="http://www.w3.org/1999/xlink" x="0px" y="0px"
	 width="64px" height="64px" viewBox="0 0 64 64" style="enable-background:new 0 0 64 64;" xml:space="preserve">
<style type="text/css">
	.st0{fill:none;stroke:#000000;stroke-width:0.5;stroke-miterlimit:10;}
</style>
<g>
	<path class="st0" d="M30.7,62.91c-1.75-0.14-3.43-0.31-5.09-0.66c-1.82-0.38-3.58-0.91-5.29-1.6c-1.66-0.67-3.25-1.49-4.76-2.45
		c-1.8-1.16-3.48-2.46-5.02-3.94c-0.35-0.34-0.33-0.54-0.02-0.84c0.33-0.32,0.62-0.68,0.95-1.04c1.04,0.88,1.9,1.76,2.88,2.49
		c1.55,1.17,3.19,2.2,4.93,3.07c1.28,0.64,2.59,1.19,3.94,1.6c1.71,0.52,3.44,0.93,5.23,1.13c3.34,0.38,6.68,0.14,10.01,0.23
		c0.12,0,0.23,0,0.35-0.01c0.51-0.05,0.89-0.43,0.9-0.89c0.01-0.46-0.36-0.87-0.89-0.89c-0.79-0.03-1.58-0.03-2.38-0.01
		c-0.47,0.01-0.66-0.16-0.65-0.64c0.03-1.71-0.11-1.39,1.37-1.41c2.03-0.02,4.06,0,6.09-0.01c0.41,0,0.87,0.03,1.1-0.45
		c0.36-0.74-0.11-1.42-0.99-1.43c-2.2-0.01-4.41,0-6.61,0c-0.95,0-0.95,0-0.95-0.95c0-0.08,0.01-0.16,0-0.23
		c-0.07-0.56,0.14-0.78,0.74-0.77c2.47,0.03,4.95,0.01,7.42,0.01c0.5,0,1,0,1.51,0c0.44,0,0.7-0.26,0.88-0.64
		c0.17-0.35,0.03-0.63-0.16-0.92c-0.18-0.28-0.47-0.25-0.73-0.26c-0.89-0.02-1.78-0.01-2.67-0.01c-2.09,0-4.17-0.02-6.26,0
		c-0.54,0-0.76-0.17-0.74-0.73c0.04-1.54-0.1-1.36,1.39-1.36c2.05-0.01,4.1,0,6.14,0c0.42,0,0.82-0.04,1.03-0.48
		c0.33-0.69-0.07-1.31-0.89-1.33c-1.14-0.02-2.28-0.01-3.42-0.01c-2.45,0-4.91-0.02-7.36,0.01c-0.59,0.01-0.78-0.17-0.75-0.76
		c0.06-1.5-0.19-1.27,1.3-1.29c0.83-0.01,1.66,0.02,2.49-0.02c0.88-0.04,1.3-0.68,0.94-1.34c-0.14-0.25-0.34-0.42-0.65-0.42
		c-1.85,0-3.71-0.07-5.56,0.03c-0.97,0.05-1.8,0.62-2.54,1.26c-1.56,1.35-3.12,2.69-4.68,4.03c-0.39,0.33-0.79,0.45-1.32,0.4
		c-1.74-0.17-3.07-1.04-4.19-2.3c-0.47-0.53-0.92-0.93-1.71-0.67c-0.43,0.14-0.91,0.03-1.38-0.08c-0.45,1.11-1.22,1.84-2.37,2.04
		c-1.12,0.19-2.36-0.23-3-1.39c-0.24-0.44-0.47-0.65-1.06-0.57c-1.89,0.24-3.2-1.09-3.26-2.96c-0.02-0.58,0-1.15,0-1.76
		c-0.56-0.07-1.08,0.09-1.59-0.07c-1.42-0.45-2.3-1.51-2.3-3.03c0-2.94-0.16-5.88,0.09-8.8c0.18-2.15,0.54-4.27,1.14-6.36
		c0.8-2.75,1.95-5.33,3.45-7.76c1.17-1.9,2.55-3.64,4.1-5.25c0.2-0.21,0.41-0.28,0.65-0.05c0.03,0.03,0.06,0.05,0.09,0.08
		c1.08,0.96,1.1,0.98,0.14,2.02c-1.76,1.9-3.22,4.01-4.42,6.3c-1.06,2.01-1.85,4.15-2.37,6.36c-0.56,2.35-0.83,4.74-0.78,7.16
		c0.04,2.09,0.01,4.17,0.01,6.26c0,0.44,0.15,0.79,0.56,0.99c0.34,0.17,0.64,0.08,0.91-0.15c0.26-0.21,0.33-0.5,0.33-0.83
		c0-0.75,0.02-1.51,0-2.26c-0.01-0.43,0.17-0.57,0.58-0.58c1.47-0.05,1.47-0.06,1.47,1.39c0,2.03,0,4.06,0,6.09
		c0,0.8,0.22,1.13,0.73,1.18c0.72,0.08,1.14-0.32,1.15-1.1c0.01-2.22,0-4.44,0.01-6.67c0-0.28-0.18-0.72,0.19-0.82
		c0.51-0.15,1.08-0.17,1.59,0.02c0.23,0.09,0.14,0.38,0.14,0.58c0.01,2.92,0.01,5.84,0,8.75c0,0.34,0.02,0.66,0.28,0.91
		c0.29,0.28,0.62,0.35,1.01,0.24c0.38-0.12,0.51-0.38,0.52-0.74c0.03-0.71,0.03-1.43,0.02-2.14c-0.03-2.3-0.01-4.6-0.01-6.9
		c0-0.75,0.04-0.79,0.79-0.79c1.43,0,1.31-0.13,1.31,1.31c0,2.11,0,4.21,0.01,6.32c0,0.71,0.26,1.02,0.81,1.04
		c0.65,0.02,0.98-0.29,0.99-0.99c0.01-1.53,0.01-3.05,0.01-4.58c0-2.01,0-4.02,0-6.03c0-0.81,0-0.82,0.79-0.82
		c1.45,0.01,1.23-0.18,1.25,1.27c0.01,0.79-0.01,1.58,0.01,2.38c0.01,0.47,0.07,0.94,0.67,1.07c0.58,0.13,1.08-0.21,1.08-0.8
		c0.02-1.8,0.05-3.6-0.01-5.39c-0.03-0.83-0.41-1.6-0.96-2.24c-1.46-1.71-2.93-3.42-4.39-5.12c-0.3-0.35-0.42-0.72-0.37-1.21
		c0.19-1.75,1.02-3.12,2.32-4.24c0.53-0.46,0.75-0.93,0.71-1.73c-0.05-0.95-0.28-1.5-1.07-2.11c-1.51-1.16-1.24-3.57,0.38-4.59
		c0.49-0.31,0.7-0.59,0.64-1.24c-0.16-1.8,1.13-3.1,2.98-3.15c0.57-0.02,1.15,0,1.78,0c-0.04-0.79-0.07-1.51,0.29-2.2
		c0.52-1,1.34-1.6,2.41-1.63c2.86-0.06,5.72-0.09,8.58,0.01c1.78,0.06,3.56,0.37,5.31,0.77c1.67,0.39,3.3,0.9,4.89,1.54
		c1.37,0.56,2.69,1.23,3.97,1.99c2.08,1.24,4,2.7,5.74,4.4c0.3,0.29,0.35,0.47,0.04,0.8c-1.06,1.07-1.03,1.07-2.14,0.04
		c-2.2-2.04-4.69-3.64-7.42-4.9c-1.55-0.72-3.14-1.27-4.77-1.72c-1.9-0.52-3.85-0.81-5.82-0.88c-2.66-0.09-5.33-0.03-8-0.03
		c-0.42,0-0.75,0.13-0.96,0.52c-0.17,0.33-0.12,0.63,0.08,0.93c0.21,0.32,0.54,0.34,0.87,0.35c0.73,0.02,1.47,0.02,2.2,0
		c0.46-0.01,0.67,0.14,0.66,0.63c-0.03,1.67,0.16,1.46-1.45,1.47c-1.93,0.01-3.86,0-5.8,0c-0.21,0-0.43-0.01-0.64,0.02
		c-0.61,0.07-0.81,0.31-0.8,0.91c0.01,0.51,0.32,0.86,0.86,0.89c0.66,0.03,1.31,0.01,1.97,0.01c1.72,0,3.44,0.01,5.16-0.01
		c0.49-0.01,0.7,0.12,0.69,0.65c-0.04,1.68,0.12,1.39-1.38,1.4c-2.76,0.02-5.53,0.04-8.29-0.01c-0.75-0.01-1.18,0.74-0.86,1.36
		c0.2,0.39,0.54,0.44,0.93,0.44c2.92,0,5.84,0,8.75,0c0.84,0,0.84,0,0.84,0.84c-0.01,1.32,0.07,1.2-1.18,1.2
		c-2.14,0-4.29,0-6.43,0.01c-0.69,0-1.04,0.31-1.05,0.88c-0.02,0.68,0.24,0.92,1.08,0.92c3.36,0.01,6.72,0,10.09,0.01
		c1.44,0,1.23-0.16,1.25,1.22c0.01,0.87,0,0.88-0.85,0.87c-0.89-0.01-1.78-0.03-2.67-0.04c-0.93-0.01-1.39,0.51-1.15,1.25
		c0.12,0.36,0.4,0.59,0.71,0.59c1.79,0.01,3.59,0.14,5.38-0.06c1.08-0.12,1.97-0.67,2.79-1.39c1.51-1.34,3.09-2.61,4.59-3.96
		c0.61-0.54,1.23-0.43,1.89-0.3c1.27,0.25,2.33,0.88,3.22,1.81c0.17,0.18,0.36,0.35,0.53,0.53c0.41,0.46,0.79,0.87,1.51,0.52
		c0.23-0.12,0.59-0.09,0.86-0.01c0.45,0.14,0.67-0.03,0.86-0.41c0.74-1.5,2.98-2.26,4.63-0.76c0.06,0.05,0.16,0.08,0.18,0.14
		c0.37,0.99,1.11,1.04,2.06,1.05c1.44,0.02,2.55,1.41,2.59,2.96c0.01,0.58,0,1.15,0,1.8c0.85-0.1,1.61-0.07,2.33,0.36
		c0.92,0.55,1.47,1.34,1.49,2.38c0.04,2.8,0.06,5.6-0.01,8.4c-0.04,1.71-0.35,3.41-0.69,5.09c-0.46,2.23-1.19,4.38-2.15,6.44
		c-0.7,1.52-1.51,2.98-2.47,4.36c-1.04,1.5-2.17,2.93-3.46,4.23c-0.17,0.18-0.32,0.3-0.53,0.12c-0.42-0.36-0.82-0.74-1.24-1.12
		c0.82-0.96,1.57-1.77,2.26-2.64c1.48-1.85,2.69-3.86,3.68-6.02c0.71-1.55,1.28-3.14,1.69-4.78c0.61-2.42,0.91-4.88,0.9-7.38
		c-0.01-2.13-0.01-4.25,0-6.38c0-0.49-0.23-0.8-0.65-1c-0.35-0.16-0.64-0.02-0.89,0.22c-0.23,0.22-0.26,0.5-0.26,0.8
		c0,0.75-0.01,1.51,0,2.26c0.01,0.39-0.13,0.56-0.53,0.56c-1.86-0.01-1.5,0.16-1.52-1.42c-0.02-1.99,0-3.98-0.01-5.97
		c0-0.45-0.04-0.92-0.49-1.16c-0.69-0.37-1.38,0.11-1.39,0.96c-0.01,1.51,0,3.01,0,4.52c0,0.83-0.02,1.66,0,2.49
		c0.01,0.43-0.16,0.58-0.58,0.58c-1.77-0.02-1.46,0.16-1.47-1.42c-0.02-2.72,0-5.45,0-8.17c0-0.65-0.34-1.05-0.88-1.05
		c-0.53,0-0.9,0.43-0.9,1.05c0,2.94,0,5.87,0,8.81c0,0.77-0.01,0.78-0.77,0.77c-1.38,0-1.25,0.09-1.25-1.25c0-2.11-0.01-4.21,0-6.32
		c0-0.52-0.16-0.91-0.69-1.07c-0.5-0.15-1,0.15-1.09,0.66c-0.04,0.21-0.02,0.42-0.02,0.64c0,3.46,0,6.92,0,10.38
		c0,0.81,0,0.82-0.79,0.81c-1.43-0.01-1.24,0.18-1.25-1.27c-0.01-0.79,0.01-1.58-0.01-2.38c-0.01-0.73-0.39-1.2-0.91-1.2
		c-0.56-0.01-0.97,0.49-0.97,1.22c-0.01,1.43-0.03,2.86,0.01,4.29c0.04,1.31,0.54,2.45,1.42,3.44c1.43,1.63,2.83,3.29,4.24,4.95
		c0.44,0.51,0.16,1.08,0.07,1.61c-0.27,1.51-1.17,2.64-2.28,3.64c-0.13,0.12-0.22,0.27-0.36,0.37c-0.38,0.27-0.42,0.57-0.26,1
		c0.19,0.53,0.1,1.1-0.06,1.66c1.33,0.55,2.08,1.5,2.09,2.92c0,1.06-0.49,1.9-1.42,2.43c-0.43,0.25-0.64,0.47-0.57,1.06
		c0.23,1.83-1.07,3.21-2.97,3.28c-0.58,0.02-1.15,0-1.7,0c-0.17,0.25-0.05,0.46-0.05,0.67c0.05,1.65-1.08,2.99-2.72,3.19
		c-1.04,0.12-2.08,0.05-3.13,0.05C34.19,62.99,32.48,63.01,30.7,62.91z M22.29,36.61c-0.08,0.61-0.45,1.05-0.88,1.45
		c-0.76,0.71-1.71,0.8-2.67,0.69c-0.16,0.25-0.15,0.48-0.16,0.71c-0.11,1.73,0.23,3.47-0.21,5.19c-0.03,0.1,0.02,0.19,0.09,0.26
		c0.77,0.77,1.42,1.69,2.44,2.15c0.46,0.21,0.98,0.43,1.5-0.03c1.45-1.26,2.93-2.49,4.39-3.74c0.92-0.79,1.96-1.38,3.17-1.54
		c2-0.27,4.01-0.09,6.02-0.12c0.87-0.01,1.61,0.33,2.16,1.03c0.63,0.8,0.88,1.69,0.64,2.66c0.17,0.14,0.33,0.1,0.48,0.11
		c1.8,0.12,3.63-0.23,5.42,0.21c0.09,0.02,0.23-0.05,0.31-0.12c0.71-0.67,1.53-1.29,1.99-2.16c0.27-0.51,0.67-1.12,0.11-1.76
		c-1.28-1.46-2.54-2.93-3.79-4.41c-0.97-1.15-1.58-2.46-1.6-3.98c-0.02-1.76-0.02-3.52,0-5.27c0.01-1.14,0.63-1.9,1.59-2.42
		c0.67-0.36,1.38-0.44,2.07-0.25c0.18-0.18,0.15-0.35,0.16-0.5c0.11-1.8-0.23-3.63,0.2-5.42c0.03-0.12-0.04-0.23-0.13-0.31
		c-0.7-0.69-1.33-1.46-2.17-2c-0.75-0.48-1.32-0.46-1.89,0.03c-1.44,1.22-2.86,2.46-4.31,3.67c-1.21,1.02-2.58,1.63-4.21,1.6
		c-1.62-0.03-3.25-0.01-4.87-0.01c-1.35,0-2.41-0.82-2.81-2.13c-0.16-0.52-0.06-1.03-0.08-1.53c-0.24-0.18-0.5-0.15-0.75-0.15
		c-1.69-0.01-3.39,0.14-5.07-0.2c-0.12-0.03-0.23-0.02-0.32,0.07c-0.79,0.76-1.67,1.45-2.16,2.47c-0.27,0.56-0.34,1.11,0.19,1.69
		c1.22,1.33,2.36,2.73,3.53,4.11c0.85,1.01,1.48,2.13,1.63,3.49c0.19,1.79,0.05,3.59,0.1,5.38C22.41,35.86,22.41,36.19,22.29,36.61z
		"/>
	<path class="st0" d="M8.66,52.33c-0.34-0.46-0.76-0.81-1.03-1.3c0.31-0.46,0.77-0.74,1.17-1.08c0.24-0.2,0.4-0.14,0.58,0.07
		c0.27,0.32,0.55,0.64,0.82,0.96c0.09,0.11,0.19,0.26,0.06,0.35c-0.47,0.35-0.84,0.83-1.4,1.06C8.81,52.4,8.75,52.36,8.66,52.33z"/>
	<path class="st0" d="M50.06,54.51c1.04-0.9,1.04-0.9,1.86,0.12c0.47,0.58,0.47,0.58-0.11,1.06c-0.92,0.75-0.93,0.76-1.72-0.13
		c-0.16-0.18-0.29-0.4-0.43-0.59C49.68,54.72,49.89,54.65,50.06,54.51z"/>
	<path class="st0" d="M53.93,13.23c-0.21-0.17-0.29-0.32-0.08-0.5c0.37-0.31,0.75-0.61,1.12-0.91c0.18-0.15,0.35-0.12,0.5,0.05
		c0.02,0.03,0.04,0.07,0.06,0.1c1.05,1.35,1.05,1.36-0.59,2.38C54.55,14.05,54.27,13.64,53.93,13.23z"/>
	<path class="st0" d="M13.46,8.03c0.07,0.09,0.1,0.16,0.15,0.22c0.7,0.93,0.71,0.95-0.24,1.61c-0.2,0.14-0.31,0.41-0.63,0.41
		c-0.3-0.35-0.62-0.71-0.93-1.07c-0.26-0.31-0.27-0.54,0.12-0.79c0.38-0.24,0.7-0.59,1.05-0.89C13.14,7.71,13.28,7.86,13.46,8.03z"
		/>
</g>
</svg>
