<?xml version="1.0" encoding="utf-8"?>
<!-- Generator: Adobe Adobe Illustrator 24.2.0, SVG Export Plug-In . SVG Version: 6.00 Build 0)  -->
<svg version="1.1" id="Layer_1" xmlns="http://www.w3.org/2000/svg" xmlns:xlink="http://www.w3.org/1999/xlink" x="0px" y="0px"
	 width="64px" height="64px" viewBox="0 0 64 64" style="enable-background:new 0 0 64 64;" xml:space="preserve">
<style type="text/css">
	.st0{fill:none;stroke:#000000;stroke-width:0.5;stroke-miterlimit:10;}
</style>
<g>
	<path class="st0" d="M28.35,2.77c1.94-1.65,4.62-1.83,6.72-0.45c1.07,0.7,1.83,1.69,2.15,2.91c0.21,0.81,0.22,1.67,0.14,2.53
		c-0.15,1.53-0.96,2.73-1.74,3.98c-0.68,1.09-1.52,2.07-2.18,3.17c-0.39,0.65-0.92,1.21-1.39,1.82c-0.25-0.14-0.33-0.37-0.47-0.55
		c-0.95-1.31-1.91-2.61-2.82-3.94c-0.72-1.05-1.47-2.08-1.85-3.32c-0.28-0.92-0.28-1.85-0.23-2.8C26.73,4.74,27.41,3.71,28.35,2.77z
		"/>
	<path class="st0" d="M30.05,49.99c0.53-1,1.32-1.77,1.87-2.67c0.26,0.01,0.32,0.18,0.4,0.29c0.73,1.02,1.43,2.07,2.19,3.08
		c0.84,1.12,1.61,2.28,2.26,3.51c0.62,1.18,0.67,2.43,0.6,3.72c-0.08,1.5-0.85,2.64-1.93,3.54c-0.77,0.65-1.75,1.01-2.79,1.12
		c-1.46,0.15-2.84-0.17-3.97-1.05c-1.1-0.86-1.9-1.99-2.01-3.5c-0.07-1.03-0.09-2.05,0.26-3.04c0.32-0.9,0.83-1.69,1.34-2.49
		C28.81,51.63,29.45,50.84,30.05,49.99z"/>
	<path class="st0" d="M23.56,24.85c-0.83,0.26-1.68,0.26-2.5,0.4c-1.19,0.2-2.37,0.44-3.56,0.62c-2.24,0.34-4.36,1.06-6.47,1.83
		c-1.5,0.55-2.88,1.28-4.02,2.41c-0.6,0.59-1,1.3-0.89,2.21c0.06,0.46,0.28,0.83,0.56,1.17c0.44,0.55,0.92,1.05,1.56,1.43
		c0.97,0.57,1.93,1.17,3,1.53c0.96,0.32,1.92,0.64,2.89,0.93c1.23,0.35,2.46,0.71,3.72,0.89c1.18,0.16,2.35,0.41,3.53,0.54
		c0.6,0.06,1.2,0.15,1.79,0.24c0.32,0.05,0.68,0.12,0.62,0.55c-0.06,0.4-0.42,0.43-0.75,0.4c-1.86-0.16-3.71-0.34-5.56-0.6
		c-1.86-0.26-3.7-0.65-5.55-0.98c-2.03-0.36-3.95-1.02-5.88-1.66C4.7,36.3,3.5,35.62,2.33,34.84c-0.7-0.47-1.28-1.06-1.63-1.82
		c-0.28-0.6-0.24-1.29-0.03-1.92c0.21-0.63,0.65-1.12,1.15-1.53c0.52-0.42,1.06-0.81,1.65-1.14c1.71-0.95,3.55-1.6,5.42-2.11
		c3.27-0.89,6.6-1.46,9.96-1.9c1.39-0.18,2.78-0.27,4.18-0.33c0.11,0,0.22-0.01,0.33,0.02c0.15,0.04,0.34,0.03,0.41,0.23
		C23.84,24.54,23.77,24.71,23.56,24.85z"/>
	<path class="st0" d="M46.32,24.57c1.5,0.21,2.96,0.45,4.41,0.74c0.81,0.16,1.6,0.4,2.41,0.53c1.55,0.24,3,0.76,4.45,1.28
		c1.27,0.46,2.55,0.93,3.66,1.73c0.51,0.37,1.01,0.73,1.46,1.18c0.99,1,1.12,2.82-0.03,3.96c-0.48,0.48-1.01,0.88-1.58,1.25
		c-1.18,0.76-2.46,1.3-3.8,1.75c-1.48,0.5-2.96,1.03-4.5,1.31c-2.18,0.4-4.35,0.86-6.56,1.13c-1.62,0.19-3.24,0.37-4.86,0.52
		c-0.23,0.02-0.47,0.04-0.7,0.02c-0.23-0.02-0.42-0.16-0.44-0.41c-0.02-0.26,0.15-0.42,0.38-0.47c0.4-0.08,0.81-0.14,1.22-0.19
		c1.18-0.13,2.35-0.39,3.53-0.54c2.31-0.3,4.51-1,6.72-1.7c1.31-0.41,2.49-1.04,3.66-1.73c0.77-0.46,1.38-1.06,1.86-1.81
		c0.4-0.63,0.45-1.27,0.15-1.95c-0.55-1.21-1.6-1.88-2.68-2.52c-1.66-0.98-3.5-1.49-5.31-2.05c-0.81-0.25-1.63-0.52-2.47-0.63
		c-1.56-0.22-3.09-0.6-4.66-0.77c-0.6-0.07-1.19-0.16-1.79-0.23c-0.17-0.02-0.33-0.06-0.45-0.17c-0.12-0.11-0.18-0.24-0.14-0.41
		c0.04-0.15,0.15-0.21,0.29-0.25c0.23-0.07,0.46-0.03,0.69-0.02C42.94,24.13,44.61,24.35,46.32,24.57z"/>
	<path class="st0" d="M40.03,36.44c-0.36,0.04-0.69,0.08-1.02,0.11c-0.3,0.02-0.57-0.05-0.64-0.39c-0.07-0.35,0.18-0.49,0.47-0.55
		c1.04-0.21,2.04-0.56,3.04-0.88c1.09-0.35,2.08-0.93,2.83-1.84c0.43-0.52,0.41-1.16,0.01-1.71c-0.74-1.02-1.81-1.51-2.95-1.9
		c-0.96-0.33-1.93-0.64-2.91-0.88c-0.27-0.07-0.54-0.17-0.48-0.51c0.06-0.34,0.36-0.38,0.65-0.36c2.23,0.16,4.45,0.42,6.6,1.06
		c1.04,0.31,2.06,0.65,3.04,1.11c0.68,0.32,1.23,0.82,1.68,1.42c0.46,0.61,0.37,1.43-0.15,1.99c-0.71,0.76-1.57,1.32-2.53,1.65
		c-1.62,0.55-3.26,1.04-4.97,1.29C41.83,36.18,40.95,36.3,40.03,36.44z"/>
	<path class="st0" d="M22.56,27.76c0.87-0.08,1.7-0.16,2.53-0.22c0.23-0.02,0.49,0.06,0.55,0.33c0.06,0.31-0.17,0.45-0.42,0.51
		c-1.22,0.28-2.4,0.68-3.57,1.11c-0.99,0.36-1.87,0.92-2.46,1.84c-0.33,0.52-0.18,1.26,0.26,1.73c0.94,0.98,2.12,1.51,3.4,1.88
		c0.76,0.22,1.53,0.44,2.29,0.65c0.29,0.08,0.55,0.19,0.5,0.54c-0.05,0.36-0.34,0.44-0.65,0.41c-2.74-0.29-5.46-0.69-8.08-1.61
		c-1.16-0.4-2.21-0.92-3.07-1.81c-0.53-0.55-0.62-1.37-0.18-1.98c0.69-0.94,1.65-1.47,2.73-1.87
		C18.38,28.52,20.42,28.04,22.56,27.76z"/>
	<path class="st0" d="M34.39,30.93c0.47,1.07,0.23,1.96-0.45,2.85c-0.59,0.76-1.92,1.1-2.91,0.69c-1.27-0.52-2.16-2.3-1.24-3.86
		c0.79-1.35,2.55-1.47,3.6-0.88C33.85,29.99,34.13,30.44,34.39,30.93z"/>
	<path class="st0" d="M34.09,23.94c-0.28,0.81-0.73,1.4-1.59,1.59c-1.24,0.27-2.31-0.45-2.61-1.8c-0.18-0.83,0.08-1.56,0.46-2.23
		c0.45-0.8,1.02-1.52,1.54-2.28c0.03-0.04,0.08-0.07,0.12-0.09c0.17,0.07,0.21,0.22,0.3,0.34c0.28,0.38,0.53,0.79,0.82,1.18
		C33.84,21.6,34.38,22.64,34.09,23.94z"/>
	<path class="st0" d="M31.26,43.83c-0.66-0.85-1.26-1.69-1.41-2.76c-0.11-0.8,0.37-1.94,1.01-2.33c0.77-0.47,1.69-0.44,2.44,0.09
		c0.54,0.39,0.75,0.98,0.84,1.59c0.09,0.59-0.02,1.16-0.3,1.74c-0.46,0.96-1.18,1.74-1.72,2.64c-0.02,0.03-0.06,0.05-0.15,0.11
		C31.74,44.56,31.51,44.21,31.26,43.83z"/>
</g>
</svg>
