<?xml version="1.0" encoding="utf-8"?>
<!-- Generator: Adobe Adobe Illustrator 24.2.0, SVG Export Plug-In . SVG Version: 6.00 Build 0)  -->
<svg version="1.1" id="Layer_1" xmlns="http://www.w3.org/2000/svg" xmlns:xlink="http://www.w3.org/1999/xlink" x="0px" y="0px"
	 width="64px" height="64px" viewBox="0 0 64 64" style="enable-background:new 0 0 64 64;" xml:space="preserve">
<style type="text/css">
	.st0{fill:none;stroke:#000000;stroke-width:0.5;stroke-miterlimit:10;}
</style>
<g>
	<path class="st0" d="M54.95,35.77c2.23-0.42,4.14,0.52,5.07,2.45c0.69,1.42,0.22,3.82-0.95,4.98c-5.22,5.2-10.43,10.4-15.64,15.6
		c-0.37,0.37-0.57,0.78-0.55,1.34c0.05,0.88,0.01,1.76,0,2.65c-0.01,0.4-0.06,0.79-0.59,0.79c-0.51,0-0.61-0.4-0.61-0.79
		c-0.02-1.16-0.01-2.32,0-3.48c0-0.4,0.19-0.73,0.46-1.01c2.52-2.53,5.05-5.05,7.58-7.57c2.86-2.86,5.75-5.7,8.57-8.6
		c1.48-1.53,0.91-3.79-0.71-4.77c-1.41-0.86-2.62-0.77-4.16,0.66c-1.89,1.77-3.67,3.67-5.49,5.52c-1.25,1.28-2.48,2.58-4.06,3.47
		c-1.75,0.98-3.6,1.72-5.63,1.74c-4.06,0.05-8.12,0.07-12.18,0c-2.86-0.05-5.43-1.07-7.56-2.96c-2.73-2.42-5.2-5.11-7.78-7.68
		c-1.14-1.14-2.72-1.78-4.28-0.75c-1,0.66-1.68,2.1-1.44,3.3c0.22,1.14,1.04,1.79,1.76,2.54c1.72,1.76,3.46,3.52,5.2,5.26
		c1.87,1.86,3.76,3.7,5.64,5.56c1.43,1.42,2.87,2.84,4.28,4.27c0.28,0.28,0.43,0.63,0.46,1.07c0.09,1.13,0.02,2.27,0.03,3.4
		c0,0.44-0.11,0.84-0.65,0.82c-0.51-0.02-0.57-0.38-0.57-0.8c0.01-0.91-0.02-1.82,0.01-2.72c0.02-0.49-0.15-0.84-0.5-1.19
		C15.5,53.7,10.36,48.51,5.15,43.37C3.45,41.69,3.2,38.8,4.9,36.98c0.96-1.03,2.93-1.51,4.3-1.22c1.54,0.33,2.39,1.5,3.4,2.46
		c1.71,1.63,3.36,3.32,5.01,5.01c1.12,1.15,2.28,2.23,3.72,2.97c0.15,0.08,0.31,0.15,0.47,0.22c0.24-0.29,0.15-0.61,0.15-0.89
		c0.01-2.67-0.03-5.35,0.01-8.02c0.04-2.62,0.76-5.04,2.54-7c1.87-2.06,4.19-3.26,7.06-3.37c2.55-0.1,4.78,0.6,6.72,2.17
		c2.32,1.87,3.63,4.33,3.7,7.34c0.06,2.97,0.01,5.95,0.02,8.93c0,0.27-0.06,0.55,0.1,0.88c1.2-0.52,2.27-1.21,3.19-2.14
		c1.99-2,4-3.98,5.99-5.97c0.55-0.54,1.08-1.11,1.65-1.63C53.49,36.24,54.15,35.92,54.95,35.77z M25.95,41.37
		c-0.13,1.65,0.62,2.97,1.66,4.14c1.9,2.14,5.41,2.51,7.84,0.87c1.2-0.81,2.04-1.92,2.45-3.26c0.4-1.3,0.25-2.69,0.23-4.05
		c0-0.22-0.1-0.36-0.32-0.44c-1.68-0.66-3.06-1.73-4.17-3.25c-1.44,2.09-3.41,3.24-5.83,3.67c-0.59,0.1-1.36-0.1-1.72,0.34
		C25.71,39.85,26,40.6,25.95,41.37z M32.04,28.34c-0.98,0.03-1.98,0.15-2.88,0.49c-2.13,0.81-3.83,2.17-4.88,4.24
		c-0.57,1.13-1.01,2.3-0.91,3.61c0.02,0.29,0.04,0.51,0.38,0.65c2.71,1.17,5.22,0.66,7.43-1.11c1.89-1.52,2.81-3.58,2.72-6.07
		C33.83,28.6,33.69,28.4,32.04,28.34z M39.89,33.17c-1.09-1.98-2.64-3.42-4.79-4.24c-0.03,0.1-0.07,0.17-0.06,0.24
		c0.32,1.63-0.06,3.19-0.55,4.72c-0.07,0.22,0,0.39,0.11,0.56c1.26,2.03,3.15,3.06,5.45,3.46c0.46,0.08,0.7-0.11,0.69-0.62
		C40.72,35.9,40.54,34.55,39.89,33.17z M24.76,42.63c-0.03-0.3-0.09-0.6-0.1-0.9c-0.02-0.75-0.02-1.51-0.02-2.26
		c0-0.61-0.42-0.78-0.9-0.8c-0.48-0.02-0.37,0.39-0.37,0.67c-0.01,2.37,0,4.74,0,7.11c0,0.39,0.08,0.72,0.52,0.78
		c1.28,0.19,2.56,0.39,4.05,0.23C26.19,46.21,25.24,44.64,24.76,42.63z M39.37,42.5c-0.46,1.99-1.46,3.64-3.17,4.95
		c1.41,0.2,2.65-0.07,3.89-0.19c0.47-0.05,0.66-0.36,0.65-0.85c-0.03-1.21-0.01-2.41-0.01-3.62c0-0.98-0.02-1.96,0.01-2.94
		c0.02-0.59-0.32-0.72-0.8-0.75c-0.57-0.04-0.5,0.36-0.5,0.71C39.42,40.65,39.41,41.51,39.37,42.5z"/>
	<path class="st0" d="M21.93,11.3c-0.13-2.94,0.74-5.47,2.66-7.61c2.52-2.81,7.13-4.15,10.82-2.68c2.68,1.07,4.58,2.8,5.83,5.32
		c0.68,1.37,0.85,2.87,0.84,4.4c-0.01,2.59-0.95,4.81-2.68,6.69c-2.4,2.62-6.5,3.88-9.99,2.84c-2.52-0.75-4.5-2.19-5.91-4.38
		C22.61,14.52,22.16,12.98,21.93,11.3z M32.19,19.32c1.43-0.01,2.8-0.31,4.04-1.02c2.56-1.48,4.16-3.66,4.55-6.62
		c0.31-2.36-0.2-4.58-1.66-6.46c-1.51-1.95-3.49-3.21-6.02-3.48c-2.46-0.26-4.68,0.32-6.61,1.89c-1.83,1.49-2.91,3.38-3.19,5.75
		c-0.31,2.73,0.37,5.15,2.24,7.15C27.28,18.4,29.47,19.36,32.19,19.32z"/>
	<path class="st0" d="M46.98,13.91c1.62-0.81,3.3-1.04,5.04-0.95c3.1,0.15,5.53,1.52,7.45,3.95c1.95,2.45,2.33,5.27,1.84,8.2
		c-0.38,2.22-1.56,4.12-3.35,5.58c-2.57,2.1-5.46,2.84-8.73,2.12c-3.49-0.77-5.85-2.91-7.18-6.13c-0.83-2-0.98-4.11-0.35-6.28
		C42.54,17.46,44.32,15.38,46.98,13.91z M47.47,30.87c0.45,0.36,1.02,0.39,1.54,0.59c2.09,0.81,4.17,0.49,6.08-0.42
		c2.81-1.34,4.62-3.57,5.08-6.73c0.3-2.07-0.01-4.06-1.14-5.87c-1.29-2.07-3.1-3.41-5.48-4.04c-2.48-0.66-4.74-0.15-6.85,1.13
		c-1.83,1.11-3.02,2.77-3.69,4.8c-0.53,1.62-0.58,3.31-0.13,4.9C43.57,27.68,44.99,29.67,47.47,30.87z"/>
	<path class="st0" d="M21.5,27.79c-2.77,4.95-8.78,6.75-13.74,4.04c-4.91-2.69-6.45-8.45-4.34-12.98c2.74-5.88,9.09-7.26,13.82-4.84
		C22.26,16.59,24.17,22.55,21.5,27.79z M4.52,26.47c0.44,1.11,1.12,2.06,1.98,2.89c1.05,1.01,2.28,1.68,3.68,2.12
		c3.14,1,5.89,0.13,8.29-1.85c1.53-1.26,2.45-2.98,2.83-5c0.4-2.1,0.09-4.09-0.93-5.91c-1.31-2.34-3.34-3.8-5.99-4.42
		c-1.72-0.4-3.39-0.2-4.96,0.43c-1.84,0.74-3.34,1.96-4.37,3.75C3.57,21.04,3.4,23.64,4.52,26.47z"/>
	<path class="st0" d="M37.6,53.88c0.39,0.02,0.72,0.02,1.05,0.06c0.86,0.09,1.37,0.61,1.38,1.47c0.02,1.61,0.02,3.22,0,4.84
		c-0.01,1.06-0.64,1.68-1.72,1.68c-2.34,0.01-4.69,0.01-7.03,0c-1.04,0-1.68-0.57-1.71-1.61c-0.04-1.61-0.04-3.23,0-4.84
		c0.03-1.04,0.5-1.45,1.53-1.54c0.1-0.01,0.2-0.05,0.3-0.03c1.1,0.18,1.75-0.16,1.88-1.39c0.06-0.6,1-1.04,1.68-0.97
		c0.75,0.08,1.58,0.77,1.57,1.5C36.5,53.89,36.9,53.97,37.6,53.88z M30.78,56.24c0,1.23,0.01,2.47,0,3.7
		c-0.01,0.46,0.13,0.69,0.64,0.69c2.22-0.02,4.43-0.01,6.65,0c0.44,0,0.65-0.15,0.65-0.61c-0.01-1.39-0.01-2.77,0-4.16
		c0-0.54-0.23-0.79-0.78-0.75c-0.3,0.02-0.6,0.01-0.91,0.01c-0.26,0-0.46,0.09-0.47,0.37c-0.02,0.66-0.48,0.76-0.99,0.78
		c-0.55,0.02-1.11,0.01-1.66,0.01c-0.41,0-0.76-0.13-0.87-0.57c-0.28-1.11-1.15-0.49-1.74-0.55C30.65,55.08,30.82,55.7,30.78,56.24z
		 M34.33,53.08c-0.13,0.49-0.06,0.99-0.07,1.49c0,0.35,0.2,0.47,0.53,0.46c0.31-0.01,0.45-0.16,0.45-0.47c0-0.4,0.03-0.8-0.01-1.2
		C35.17,52.82,34.92,52.58,34.33,53.08z"/>
	<path class="st0" d="M31.34,5.05c0.03-0.54,0.27-0.86,0.75-0.83c0.57,0.04,0.53,0.51,0.53,0.92c0,1.49,0.07,2.98-0.02,4.46
		c-0.06,0.91,0.22,1.58,0.86,2.17c0.79,0.72,1.56,1.47,2.32,2.22c0.34,0.33,0.67,0.75,0.26,1.17c-0.37,0.37-0.78,0.14-1.12-0.2
		c-1-1-1.99-2.01-3-2.99c-0.43-0.42-0.6-0.89-0.59-1.49C31.36,8.7,31.34,6.91,31.34,5.05z"/>
	<path class="st0" d="M52,23.91c-0.26,0.26-0.51,0.33-0.8,0.33c-1.97,0-3.93,0-5.9,0c-0.32,0-0.63-0.05-0.74-0.4
		c-0.17-0.55,0.16-0.72,0.63-0.76c1.46-0.13,2.92-0.1,4.38-0.03c1.25,0.06,1.25,0.09,1.25-1.18c0-1.06,0-2.12-0.01-3.17
		c0-0.44,0.16-0.77,0.62-0.79c0.41-0.02,0.67,0.29,0.67,0.68C52.11,20.34,52.23,22.1,52,23.91z"/>
	<path class="st0" d="M13.26,22.71c0.07,0.43,0.35,0.35,0.6,0.35c1.16,0,2.32-0.01,3.47-0.01c0.45,0,0.97,0.03,0.97,0.58
		c0,0.53-0.5,0.61-0.96,0.61c-1.46,0-2.92,0-4.39,0c-0.68,0-1.01-0.29-1.01-1.01c0.02-1.87,0.01-3.73,0.01-5.6
		c0-0.48,0.08-0.99,0.67-0.99c0.62,0,0.62,0.54,0.62,1.01C13.25,19.32,13.26,20.99,13.26,22.71z"/>
</g>
</svg>
