<?xml version="1.0" encoding="utf-8"?>
<!-- Generator: Adobe Adobe Illustrator 24.2.0, SVG Export Plug-In . SVG Version: 6.00 Build 0)  -->
<svg version="1.1" id="Layer_1" xmlns="http://www.w3.org/2000/svg" xmlns:xlink="http://www.w3.org/1999/xlink" x="0px" y="0px"
	 width="64px" height="64px" viewBox="0 0 64 64" style="enable-background:new 0 0 64 64;" xml:space="preserve">
<style type="text/css">
	.st0{fill:none;stroke:#000000;stroke-width:0.5;stroke-miterlimit:10;}
</style>
<g>
	<g>
		<g>
			<path class="st0" d="M56.47,27.37c-0.04-1.1-0.57-1.72-1.67-1.72c-1.41,0-2.82-0.04-4.23,0.02c-0.81,0.03-1.38-0.04-1.6-0.99
				c-0.09-0.41-0.17-0.67,0.15-0.98c1.13-1.12,2.21-2.29,3.39-3.36c0.72-0.65,0.82-1.88,0.05-2.49c-0.3-0.24-0.56-0.54-0.84-0.82
				c-1.89-1.9-3.8-3.79-5.67-5.71c-0.64-0.65-1.81-0.61-2.3,0.03c-0.23,0.29-0.51,0.54-0.78,0.8c-0.9,0.9-1.79,1.8-2.69,2.7
				c-0.19,0.19-0.4,0.38-0.71,0.24c-0.31-0.14-0.62-0.27-0.94-0.38c-0.32-0.11-0.42-0.32-0.42-0.66c0.02-1.24,0.01-2.48,0.01-3.77
				c0-0.46,0-0.87,0-1.28c0-1.03-0.48-1.51-1.53-1.51c-3.11,0-6.22,0-9.32,0c-1.08,0-1.55,0.47-1.55,1.56
				c-0.01,1.38-0.05,2.76,0.02,4.13c0.05,0.93-0.07,1.6-1.14,1.83c-0.39,0.08-0.65,0.13-0.94-0.18c-1.14-1.16-2.34-2.28-3.44-3.47
				c-0.59-0.64-1.77-0.65-2.38,0.01c-1.49,1.58-3.06,3.09-4.59,4.63c-0.69,0.69-1.39,1.38-2.05,2.1c-0.48,0.52-0.5,1.37-0.03,1.9
				c0.44,0.5,0.94,0.97,1.41,1.45c0.8,0.81,1.61,1.63,2.41,2.44c0.12,0.12,0.24,0.23,0.14,0.43c-0.13,0.26-0.24,0.52-0.33,0.8
				c-0.13,0.42-0.39,0.56-0.83,0.55c-1.61-0.03-3.23-0.01-4.84-0.01c-1.03,0-1.57,0.52-1.65,1.53c-0.05,0.53,0.02,1.05,0.01,1.58
				c-0.02,2.52-0.05,5.03-0.05,7.55c0,1.42,0.49,1.91,1.9,1.92c1.31,0.01,2.62,0.07,3.92-0.02c0.98-0.07,1.55,0.15,1.79,1.18
				c0.09,0.37,0.08,0.57-0.18,0.82c-1.18,1.15-2.33,2.33-3.49,3.49c-0.71,0.72-0.69,1.66,0.04,2.37c0.79,0.77,1.57,1.55,2.35,2.33
				c1.44,1.44,2.87,2.88,4.32,4.32c0.54,0.53,1.42,0.56,1.93,0.05c1.14-1.12,2.27-2.26,3.39-3.41c0.6-0.61,0.72-0.63,1.55-0.32
				c0.6,0.22,0.84,0.53,0.81,1.21c-0.07,1.56-0.03,3.13-0.02,4.69c0.01,0.97,0.54,1.55,1.49,1.56c3.16,0.02,6.32,0.02,9.48,0
				c0.77-0.01,1.47-0.6,1.44-1.5c-0.06-1.72-0.01-3.43-0.02-5.15c0-0.33,0.06-0.53,0.43-0.62c0.42-0.11,0.81-0.32,1.27-0.51
				c1.3,1.29,2.64,2.57,3.92,3.91c0.62,0.64,1.59,0.62,2.15,0.03c0.55-0.58,1.13-1.11,1.69-1.67c1.65-1.65,3.28-3.3,4.94-4.94
				c0.67-0.66,0.7-1.61,0.03-2.28c-1.2-1.2-2.39-2.41-3.59-3.61c-0.19-0.19-0.3-0.36-0.18-0.63c0.12-0.26,0.22-0.53,0.32-0.8
				c0.14-0.36,0.37-0.52,0.77-0.51c1.58,0.02,3.16,0.01,4.74,0.01c1.32,0,1.79-0.48,1.76-1.78C56.38,33.42,56.57,30.4,56.47,27.37z
				 M48.4,34.67c-1.12,0-2.24,0-3.36,0c-0.81,0-1.13,0.29-1.36,1.06c-0.19,0.63-0.44,1.26-0.76,1.84c-0.43,0.79-0.39,1.19,0.23,1.82
				c0.83,0.83,1.65,1.67,2.49,2.49c0.2,0.19,0.16,0.33,0,0.5c-1.15,1.17-2.3,2.34-3.5,3.56c-0.53-0.55-1.02-1.05-1.51-1.54
				c-0.46-0.46-0.92-0.92-1.38-1.38c-0.41-0.41-0.92-0.47-1.4-0.23c-0.75,0.38-1.53,0.67-2.32,0.96c-0.66,0.25-0.88,0.61-0.88,1.31
				c0,1.17-0.01,2.35,0.01,3.52c0,0.31-0.09,0.42-0.41,0.42c-1.51-0.01-3.01-0.01-4.52,0c-0.3,0-0.39-0.1-0.39-0.39
				c0.01-1.08,0-2.16,0.01-3.24c0-1.17-0.2-1.46-1.33-1.79c-0.59-0.17-1.14-0.42-1.68-0.71c-0.63-0.34-1.2-0.23-1.69,0.28
				c-0.89,0.92-1.8,1.83-2.69,2.73c-1.28-1.28-2.52-2.52-3.8-3.8c0.6-0.6,1.2-1.18,1.8-1.77c0.4-0.39,0.79-0.79,1.17-1.19
				c0.3-0.32,0.32-0.92,0.07-1.39c-0.35-0.64-0.65-1.3-0.84-2.01c-0.21-0.75-0.61-1.04-1.39-1.04c-1.16,0-2.32-0.01-3.48,0.01
				c-0.35,0.01-0.46-0.09-0.46-0.45c0.02-1.47,0.02-2.94,0-4.4c0-0.36,0.14-0.47,0.47-0.47c1.13,0.01,2.27,0,3.4,0.01
				c0.88,0.01,1.28-0.31,1.5-1.17c0.15-0.59,0.4-1.15,0.69-1.69c0.14-0.25,0.25-0.5,0.29-0.78c-0.01-0.41-0.1-0.72-0.38-0.99
				c-0.85-0.81-1.67-1.66-2.5-2.49c-0.11-0.11-0.2-0.24-0.28-0.33c1.23-1.25,2.45-2.49,3.75-3.81c0.43,0.46,0.84,0.91,1.26,1.34
				c0.45,0.46,0.9,0.91,1.35,1.36c0.71,0.71,1.1,0.74,1.97,0.24c0.59-0.34,1.22-0.58,1.88-0.75c0.53-0.14,0.91-0.61,0.91-1.21
				c0.01-1.2,0.02-2.4,0-3.6c-0.01-0.37,0.1-0.49,0.48-0.48c1.45,0.02,2.91,0.02,4.36,0c0.4-0.01,0.49,0.14,0.49,0.51
				c-0.02,1.15-0.01,2.3-0.01,3.44c0,0.75,0.36,1.14,1.08,1.36c0.76,0.24,1.48,0.58,2.19,0.93c0.49,0.24,0.95,0.13,1.33-0.26
				c0.89-0.91,1.79-1.81,2.69-2.71c0.05-0.05,0.1-0.08,0.16-0.12c1.23,1.25,2.45,2.49,3.69,3.75c-0.29,0.41-0.73,0.76-1.11,1.16
				c-0.57,0.6-1.19,1.17-1.77,1.76c-0.36,0.36-0.37,0.91-0.03,1.56c0.34,0.66,0.64,1.34,0.83,2.06c0.14,0.55,0.59,0.9,1.17,0.9
				c1.17,0.01,2.35,0,3.52,0c0.55,0,0.57,0.02,0.57,0.55c0,1.4,0,2.8,0,4.2C48.98,34.67,48.98,34.67,48.4,34.67z"/>
		</g>
	</g>
	<g>
		<g>
			<path class="st0" d="M40.39,30.3c-0.25-1.04-0.67-1.99-1.26-2.86c-0.62-0.93-1.45-1.66-2.41-2.23c-0.78-0.47-1.61-0.86-2.58-0.96
				c-1.23-0.34-2.41-0.19-3.58,0.09c-1.11,0.27-2.1,0.81-2.98,1.54c-1.35,1.12-2.21,2.53-2.67,4.24c-0.4,1.48-0.33,2.91,0.13,4.32
				c0.47,1.45,1.29,2.7,2.46,3.69c0.82,0.69,1.76,1.18,2.77,1.53c0.92,0.32,1.88,0.29,2.84,0.29c0.98,0,1.9-0.27,2.77-0.67
				c1.3-0.59,2.39-1.47,3.22-2.65c0.57-0.81,1-1.7,1.23-2.66C40.65,32.76,40.7,31.54,40.39,30.3z M37.13,35.48
				c-0.8,1.08-1.9,1.8-3.21,2.09c-1.25,0.28-2.51,0.18-3.7-0.39c-1.37-0.65-2.34-1.7-2.91-3.08c-0.34-0.81-0.4-1.69-0.35-2.58
				c0.09-1.47,0.72-2.66,1.73-3.66c0.97-0.95,2.17-1.46,3.53-1.56c1.09-0.09,2.11,0.16,3.07,0.67c1.24,0.66,2.09,1.66,2.63,2.94
				C38.65,31.95,38.38,33.8,37.13,35.48z"/>
		</g>
	</g>
</g>
</svg>
