<?xml version="1.0" encoding="utf-8"?>
<!-- Generator: Adobe Adobe Illustrator 24.2.0, SVG Export Plug-In . SVG Version: 6.00 Build 0)  -->
<svg version="1.1" id="Layer_1" xmlns="http://www.w3.org/2000/svg" xmlns:xlink="http://www.w3.org/1999/xlink" x="0px" y="0px"
	 width="64px" height="64px" viewBox="0 0 64 64" style="enable-background:new 0 0 64 64;" xml:space="preserve">
<style type="text/css">
	.st0{fill:none;stroke:#000000;stroke-width:0.5;stroke-miterlimit:10;}
</style>
<g>
	<path class="st0" d="M6.24,28.86c3.01,0,5.96,0,8.9,0c0.79,0,0.86,0.12,0.77,0.91c-0.42,3.44,0.26,6.67,1.87,9.71
		c1.68,3.17,4.13,5.61,7.3,7.3c2.09,1.11,4.31,1.79,6.7,2.02c2.1,0.2,4.17,0.11,6.18-0.38c3.94-0.97,7.3-2.98,10-6.06
		c1.36-1.55,2.28-3.3,2.86-5.29c0.53-1.81,0.73-3.65,0.77-5.51c0.02-0.85-0.19-1.71-0.11-2.57c0.22-0.2,0.49-0.13,0.74-0.13
		c3.48,0,6.96,0.01,10.45-0.01c0.65,0,0.87,0.2,0.83,0.84c-0.15,1.95-0.18,3.91-0.69,5.81c-0.08,0.29-0.19,0.41-0.48,0.49
		c-0.95,0.25-1.92,0.36-2.9,0.4c-0.61,0.02-1,0.16-1.21,0.87c-0.61,2.11-1.42,4.14-2.56,6.03c-0.32,0.53-0.22,0.94,0.15,1.37
		c0.68,0.8,1.3,1.65,1.89,2.59c-1.45,2.37-3.25,4.47-5.29,6.36c-0.37,0.34-0.71,0.13-1.02-0.06c-0.74-0.45-1.47-0.9-2.17-1.4
		c-0.54-0.38-0.97-0.36-1.51,0.03c-1.76,1.28-3.67,2.31-5.71,3.05c-0.54,0.2-0.74,0.46-0.69,1.02c0.1,1.12-0.12,2.24-0.1,3.36
		c0.01,0.47-0.31,0.62-0.64,0.7c-2.23,0.58-4.47,1.11-6.79,1.19c-1.46,0.05-1.45,0.04-1.87-1.4c-0.24-0.8-0.5-1.6-0.64-2.43
		c-0.07-0.39-0.27-0.64-0.75-0.68c-1.65-0.14-3.28-0.38-4.88-0.81c-0.85-0.23-1.69-0.49-2.59-0.75c-0.91,1.1-1.86,2.22-2.77,3.36
		c-0.28,0.35-0.53,0.43-0.96,0.26c-2.53-1.05-4.86-2.44-7.05-4.1c-0.31-0.24-0.32-0.48-0.17-0.78c0.59-1.24,1.15-2.5,1.79-3.71
		c0.21-0.39,0.18-0.62-0.11-0.91c-1.78-1.7-3.29-3.63-4.52-5.76c-0.28-0.49-0.68-0.28-0.98-0.19c-1.3,0.4-2.64,0.53-3.95,0.86
		c-0.56,0.14-0.84-0.03-1.09-0.55c-1.19-2.44-2.15-4.94-2.69-7.61c-0.09-0.44,0.03-0.63,0.4-0.81c1.31-0.66,2.67-1.22,4.04-1.73
		c0.51-0.19,0.68-0.45,0.64-0.98c-0.07-1.07-0.09-2.14-0.14-3.22C5.45,29.06,5.64,28.8,6.24,28.86z"/>
	<path class="st0" d="M27.65,36.08c1.35,2.17,3.18,3.55,5.66,4.16c3.99,0.99,8.11-1.38,9.71-4.85c0.9-1.94,1.05-3.98,0.48-6.06
		c-0.03-0.11-0.05-0.22-0.07-0.31c0.21-0.24,0.46-0.16,0.68-0.17c0.89-0.01,1.78-0.01,2.66,0c0.52,0,0.99-0.02,1.49,0.36
		c0.4,0.3,1.06,0.28,1.61,0.38c0.4,0.07,0.59,0.29,0.63,0.7c0.13,1.27-0.06,2.51-0.22,3.76c-0.03,0.26-0.21,0.39-0.44,0.35
		c-1.78-0.27-2.26,0.86-2.82,2.25c-0.51,1.27-0.77,2.26,0.44,3.21c0.31,0.24,0.21,0.62-0.04,0.94c-0.65,0.85-1.36,1.65-2.1,2.42
		c-0.4,0.42-0.85,0.62-1.3,0.14c-0.92-0.99-1.8-0.91-2.8-0.11c-0.46,0.37-1.04,0.62-1.62,0.8c-0.42,0.13-0.59,0.4-0.55,0.85
		c0.03,0.39-0.01,0.8,0.02,1.19c0.05,0.59-0.16,0.92-0.77,1.01c-1.13,0.17-2.22,0.52-3.37,0.53c-0.43,0-0.67-0.1-0.73-0.54
		c-0.04-0.25-0.12-0.5-0.18-0.75c-0.29-1.21-0.29-1.24-1.51-1.38c-0.75-0.08-1.47-0.21-2.17-0.48c-0.49-0.19-0.82-0.11-1.12,0.35
		c-0.3,0.47-0.69,0.88-1.03,1.33c-0.19,0.26-0.4,0.34-0.72,0.2c-1.18-0.51-2.3-1.12-3.36-1.86c-0.36-0.25-0.43-0.52-0.24-0.89
		c0.27-0.52,0.51-1.05,0.8-1.55c0.23-0.4,0.31-0.69-0.11-1.08c-0.76-0.69-1.38-1.52-1.89-2.41c-0.2-0.34-0.43-0.43-0.81-0.31
		c-0.69,0.21-1.39,0.38-2.08,0.58c-0.32,0.09-0.55,0-0.69-0.3c-0.6-1.26-1.11-2.56-1.36-3.95c-0.06-0.34,0.09-0.47,0.34-0.58
		c0.69-0.29,1.37-0.59,2.07-0.85c0.36-0.14,0.49-0.34,0.48-0.73c-0.02-1.02-0.09-2.05,0.11-3.07c0.05-0.27,0.07-0.52,0.42-0.52
		c1.87,0.01,3.74,0.01,5.6,0.02c0.04,0,0.08,0.05,0.16,0.1C26.2,31.42,26.38,33.79,27.65,36.08z"/>
	<path class="st0" d="M47.49,23.86c0.25,0.91,0.24,1.81,0.4,2.68c0.11,0.6-0.11,0.85-0.75,0.83c-1.47-0.03-2.94-0.01-4.41-0.01
		c-6.89,0-13.78,0-20.66,0c-1.04,0-1.07,0-1.03-1.05c0.13-2.94,1.25-5.5,3.13-7.74c0.98-1.17,2.16-2.12,3.44-2.94
		c0.61-0.39,1.09-0.47,1.74,0.08c2.86,2.42,7.3,2.41,10.19-0.01c0.61-0.51,1.05-0.47,1.67-0.1c2.56,1.53,4.43,3.66,5.65,6.37
		C47.11,22.55,47.27,23.19,47.49,23.86z"/>
	<path class="st0" d="M41.04,8.3c0.19,2.04-0.29,3.82-1.63,5.3c-2.97,3.28-8.43,2.78-10.71-1.07c-2.23-3.77-0.16-8.39,3.49-9.64
		c3.6-1.24,7.46,0.62,8.57,4.28C40.87,7.52,41.06,7.85,41.04,8.3z"/>
	<path class="st0" d="M16.45,27.36c-3.43,0-6.8-0.01-10.16,0.01c-0.58,0-0.85-0.16-0.88-0.76c-0.12-2.52,0.57-4.78,2.04-6.81
		c0.8-1.11,1.83-1.97,2.96-2.73c0.54-0.36,0.96-0.34,1.49,0.1c2.25,1.85,5.89,1.84,8.19,0.02c0.63-0.5,1.98-0.21,2.35,0.5
		c0.13,0.25-0.07,0.39-0.19,0.55c-1.42,1.9-2.3,4.03-2.71,6.36c-0.11,0.64-0.22,1.29-0.22,1.94c0,0.66-0.29,0.86-0.9,0.83
		C17.78,27.34,17.15,27.36,16.45,27.36z"/>
	<path class="st0" d="M52.42,18.54c1.7,0.1,3.22-0.32,4.49-1.35c0.62-0.5,1.11-0.44,1.68-0.06c1.92,1.29,3.36,2.97,4.19,5.16
		c0.54,1.44,0.76,2.91,0.7,4.44c-0.02,0.46-0.22,0.57-0.66,0.57c-4.04,0.01-8.08,0.04-12.12,0.06c-1.08,0.01-1.03-0.05-1.1-1.01
		c-0.2-2.94-1.18-5.63-2.92-8.02c-0.31-0.42-0.33-0.68,0.14-0.95c0.26-0.15,0.52-0.32,0.77-0.48c0.34-0.22,0.64-0.19,0.95,0.08
		C49.65,17.92,50.92,18.43,52.42,18.54z"/>
	<path class="st0" d="M17.78,6.79c2.39,0.89,3.46,2.94,3.43,5c-0.04,2.36-1.61,4.14-3.8,4.89c-2.44,0.83-5.5-0.8-6.3-3.26
		c-0.85-2.6,0.1-5.13,2.64-6.43C15,6.34,16.37,6.19,17.78,6.79z"/>
	<path class="st0" d="M49.01,8.19c2.36-2.49,5.97-2.25,7.93,0.24c2.16,2.74,1.08,7.06-2.56,8.22c-2.83,0.91-6.1-0.95-6.67-4.21
		C47.44,10.87,47.93,9.44,49.01,8.19z"/>
</g>
</svg>
