<?xml version="1.0" encoding="iso-8859-1"?>
<!-- Uploaded to: SVG Repo, www.svgrepo.com, Generator: SVG Repo Mixer Tools -->
<svg fill="#000000" height="800px" width="800px" version="1.1" id="Layer_1" xmlns="http://www.w3.org/2000/svg" xmlns:xlink="http://www.w3.org/1999/xlink" 
	 viewBox="0 0 511.998 511.998" xml:space="preserve">
<g>
	<g>
		<circle cx="411.054" cy="72.54" r="36.181"/>
	</g>
</g>
<g>
	<g>
		<path d="M156.962,453.762l-1.12-19.267c-7.659-4.015-12.9-12.041-12.9-21.272v-70.119c0-6.405,2.526-12.227,6.628-16.536
			l-0.79-13.604c-4.356-6.018-6.914-13.42-6.874-21.419c0.012-2.536,0.665-132.36,0.685-136.377l0.001-0.216
			c0.064-12.777,4.054-24.652,10.812-34.488c-3.359-0.271-4.047-0.209-23.5-0.209c-2.287,5.974-19.186,50.125-21.639,56.533
			l5.102-24.033c0.358-1.687,0.098-3.447-0.733-4.96l-7.006-12.742l6.229-11.329c0.927-1.687-0.295-3.757-2.222-3.757H92.539
			c-1.925,0-3.151,2.069-2.223,3.757l6.229,11.329l-7.032,12.79c-0.816,1.483-1.082,3.206-0.752,4.866l4.461,24.079
			c-4.876-12.504-17.415-46.272-21.415-56.533H54.238c-8.456,0-18.207,1.05-26.414,8.836c-6.637,6.295-10.314,15.052-14.098,27.141
			C9.543,169.599,0.8,208.216,0.43,209.853c-1.191,5.269,0.125,10.792,3.563,14.96c52.573,63.705,48.792,59.288,50.434,60.745
			c0,2.255,0.744-11.301-9.686,168.204c-0.671,11.549,8.148,21.457,19.697,22.127c11.591,0.667,21.458-8.181,22.127-19.697
			c10.405-179.08,9.737-167.046,9.738-168.65h9.096c0.001,1.601-0.67-10.47,9.738,168.65c0.669,11.522,10.542,20.364,22.127,19.697
			C148.815,475.218,157.634,465.311,156.962,453.762z M54.426,231.072L36.39,209.219c5.29-22.837,12.83-47.156,14.596-52.766
			c0.227-0.722,0.886-1.222,1.641-1.247c0.009,0,0.019-0.001,0.029-0.001c0.464-0.015,0.914,0.158,1.248,0.482
			c0.333,0.323,0.521,0.768,0.521,1.232V231.072z"/>
	</g>
</g>
<g>
	<g>
		<circle cx="101.087" cy="72.54" r="36.181"/>
	</g>
</g>
<g>
	<g>
		<path d="M357.598,222.625c3.662-4.438,5.064-10.321,3.794-15.933c-0.394-1.743-9.706-42.876-14.161-57.111
			c-4.03-12.876-7.948-22.202-15.017-28.908c-8.743-8.292-19.128-9.411-28.133-9.411l-19.066,0.025
			c-3.197,8.353-20.29,53.005-23.039,60.189l5.434-25.598c0.382-1.797,0.104-3.672-0.781-5.283l-7.463-13.572l6.634-12.067
			c0.46-0.837,0.445-1.855-0.042-2.676s-1.37-1.326-2.325-1.326h-18.208c-0.955,0-1.839,0.504-2.325,1.326
			c-0.486,0.822-0.502,1.839-0.042,2.676l6.634,12.067l-7.49,13.623c-0.869,1.579-1.152,3.415-0.802,5.183l4.752,25.648
			c-2.372-6.083-20.231-53.602-22.81-60.214h-18.877c-24.14,0-43.877,19.64-43.998,43.778l-0.686,136.592
			c-0.031,6.341,3.121,11.951,7.951,15.331c0,6.877,0,12.531,0,27.678c-5.731,0-9.048,4.072-9.048,8.463v70.119
			c0,4.674,3.789,8.463,8.463,8.463h20.379c4.674,0,8.463-3.789,8.463-8.463v-70.12c0-4.359-3.297-7.946-7.533-8.409
			c0-15.278,0-11.97,0-27.361c5.089-3.295,8.475-9,8.508-15.514l0.686-136.592c0.01-1.98,1.621-3.578,3.6-3.573
			c1.979,0.006,3.58,1.612,3.58,3.591v133.7c-2.256,38.824-1.476,25.398-2.07,35.62c5.352,4.406,8.771,11.08,8.771,18.538v70.119
			c0,10.137-6.318,18.819-15.221,22.334l-1.797,30.923c-0.742,12.769,9.397,23.606,22.293,23.606
			c11.73,0,21.564-9.157,22.253-21.017c0.07-1.206,10.396-178.536,10.397-179.629h9.638c0.001,1.093,10.328,178.423,10.397,179.629
			c0.713,12.27,11.225,21.688,23.567,20.98c12.301-0.715,21.694-11.266,20.979-23.567c-0.285-4.906-10.327-177.846-10.4-178.779
			C305.508,285.98,301.349,290.785,357.598,222.625z M303.115,230.226c0-7.172,0-64.392,0-79.407c0-0.628,0.254-1.228,0.703-1.666
			c0.449-0.438,1.056-0.677,1.684-0.66c0.012,0,0.026,0.001,0.038,0.001c0.954,0.025,1.782,0.662,2.05,1.578
			c2.249,7.668,12.282,42.051,15.501,55.947L303.115,230.226z"/>
	</g>
</g>
<g>
	<g>
		<path d="M254.332,21.913c-21.282,0-38.534,17.252-38.534,38.534c0,14.099,7.575,26.422,18.874,33.14
			c5.757,3.423,12.476,5.394,19.66,5.394c4.905,0,9.59-0.926,13.905-2.596c0.175-0.067,0.349-0.136,0.523-0.207
			c14.131-5.712,24.105-19.552,24.105-35.731C292.865,39.165,275.614,21.913,254.332,21.913z"/>
	</g>
</g>
<g>
	<g>
		<path d="M508.006,224.81c3.438-4.167,4.754-9.69,3.563-14.96c-0.37-1.638-9.113-40.255-13.297-53.62
			c-3.784-12.088-7.462-20.845-14.098-27.141c-8.208-7.785-17.959-8.836-26.414-8.836h-17.892
			c-2.287,5.974-19.186,50.125-21.639,56.533l5.102-24.033c0.358-1.687,0.098-3.447-0.733-4.96l-7.006-12.742l6.229-11.329
			c0.927-1.686-0.295-3.757-2.222-3.757h-17.096c-1.925,0-3.151,2.069-2.222,3.757l6.229,11.329l-7.032,12.79
			c-0.815,1.483-1.082,3.206-0.752,4.866l4.461,24.079c-9.825-27.227-5.081-14.01-21.415-55.902h-29.911
			c4.312,7.338,7.259,16.169,9.769,24.188c4.002,12.785,11.548,45.325,14.479,58.291c2.298,10.166-0.24,20.823-6.875,28.862
			c-8.251,9.998-16.291,19.741-24.579,29.784c19.69,23.859,18.167,22.154,19.736,23.546c0,2.261,0.745-11.3-9.686,168.204
			c-0.696,11.989,8.823,22.163,20.932,22.163c11.013,0,20.246-8.597,20.892-19.733c10.406-179.08,9.737-167.046,9.738-168.65h9.096
			c0.001,1.601-0.67-10.47,9.738,168.65c0.669,11.522,10.542,20.364,22.127,19.697c11.549-0.671,20.368-10.578,19.697-22.127
			c-0.113-1.948-9.644-166.167-9.773-167.844C459.097,284.298,455.173,288.832,508.006,224.81z M456.852,231.947l2.2-78.526
			c0.012-0.436,0.199-0.848,0.516-1.145s0.742-0.455,1.178-0.438c0.019,0.001,0.038,0.001,0.057,0.002
			c0.562,0.022,1.041,0.415,1.174,0.962c1.655,6.805,11.991,49.341,13.63,56.416L456.852,231.947z"/>
	</g>
</g>
</svg>