<?xml version="1.0" encoding="utf-8"?>
<!-- Generator: Adobe Adobe Illustrator 24.2.0, SVG Export Plug-In . SVG Version: 6.00 Build 0)  -->
<svg version="1.1" id="Layer_1" xmlns="http://www.w3.org/2000/svg" xmlns:xlink="http://www.w3.org/1999/xlink" x="0px" y="0px"
	 width="64px" height="64px" viewBox="0 0 64 64" style="enable-background:new 0 0 64 64;" xml:space="preserve">
<style type="text/css">
	.st0{fill:none;stroke:#000000;stroke-width:0.5;stroke-miterlimit:10;}
</style>
<g>
	<g>
		<path class="st0" d="M39.76,30.3c-0.25-1.04-0.67-1.99-1.26-2.86c-0.62-0.93-1.45-1.66-2.41-2.23c-0.78-0.47-1.61-0.86-2.58-0.96
			c-1.23-0.34-2.41-0.19-3.58,0.09c-1.11,0.27-2.1,0.81-2.98,1.54c-1.35,1.12-2.21,2.53-2.67,4.24c-0.4,1.48-0.33,2.91,0.13,4.32
			c0.47,1.45,1.29,2.7,2.46,3.69c0.82,0.69,1.76,1.18,2.77,1.53c0.92,0.32,1.88,0.29,2.84,0.29c0.98,0,1.9-0.27,2.77-0.67
			c1.3-0.59,2.39-1.47,3.22-2.65c0.57-0.81,1-1.7,1.23-2.66C40.02,32.76,40.07,31.54,39.76,30.3z M36.49,35.48
			c-0.8,1.08-1.9,1.8-3.21,2.09c-1.25,0.28-2.51,0.18-3.7-0.39c-1.37-0.65-2.34-1.7-2.91-3.08c-0.34-0.81-0.4-1.69-0.35-2.58
			c0.09-1.47,0.72-2.66,1.73-3.66c0.97-0.95,2.17-1.46,3.53-1.56c1.09-0.09,2.11,0.16,3.07,0.67c1.24,0.66,2.09,1.66,2.63,2.94
			C38.02,31.95,37.74,33.8,36.49,35.48z"/>
	</g>
</g>
</svg>
