<?xml version="1.0" encoding="utf-8"?>
<!-- Generator: Adobe Adobe Illustrator 24.2.0, SVG Export Plug-In . SVG Version: 6.00 Build 0)  -->
<svg version="1.1" id="Layer_1" xmlns="http://www.w3.org/2000/svg" xmlns:xlink="http://www.w3.org/1999/xlink" x="0px" y="0px"
	 width="64px" height="64px" viewBox="0 0 64 64" style="enable-background:new 0 0 64 64;" xml:space="preserve">
<style type="text/css">
	.st0{fill:none;stroke:#000000;stroke-width:0.5;stroke-miterlimit:10;}
</style>
<path class="st0" d="M21.36,25.72c-0.04,0.28-0.15,0.53-0.29,0.78c-0.29,0.54-0.54,1.1-0.69,1.69c-0.22,0.87-0.61,1.18-1.5,1.17
	c-1.13-0.01-2.27,0-3.4-0.01c-0.33,0-0.47,0.11-0.47,0.47c0.02,1.47,0.02,2.94,0,4.4c0,0.36,0.11,0.46,0.46,0.45
	c1.16-0.02,2.32-0.01,3.48-0.01c0.78,0,1.19,0.29,1.39,1.04c0.19,0.71,0.49,1.37,0.84,2.01c0.25,0.47,0.24,1.07-0.07,1.39
	c-0.38,0.41-0.78,0.8-1.17,1.19c-0.59,0.59-1.19,1.17-1.8,1.77c1.28,1.28,2.51,2.52,3.8,3.8c0.89-0.9,1.8-1.81,2.69-2.73
	c0.49-0.51,1.06-0.61,1.69-0.28c0.54,0.29,1.09,0.54,1.68,0.71c1.13,0.33,1.34,0.62,1.33,1.79c0,1.08,0.01,2.16-0.01,3.24
	c0,0.29,0.09,0.4,0.39,0.39c1.51-0.01,3.01-0.01,4.52,0c0.32,0,0.42-0.1,0.41-0.42c-0.01-1.17-0.01-2.35-0.01-3.52
	c0-0.7,0.23-1.06,0.88-1.31c0.78-0.3,1.57-0.58,2.32-0.96c0.48-0.24,0.99-0.18,1.4,0.23c0.46,0.46,0.92,0.92,1.38,1.38
	c0.49,0.5,0.97,1,1.51,1.54c1.2-1.22,2.35-2.39,3.5-3.56c0.16-0.17,0.2-0.31,0-0.5c-0.84-0.82-1.66-1.66-2.49-2.49
	c-0.62-0.63-0.67-1.03-0.23-1.82c0.32-0.59,0.57-1.21,0.76-1.84c0.24-0.77,0.55-1.06,1.36-1.06c1.12,0,2.24,0,3.36,0
	c0.58,0,0.58,0,0.58-0.56c0-1.4,0-2.8,0-4.2c0-0.53-0.02-0.55-0.57-0.55c-1.17,0-2.35,0-3.52,0c-0.58,0-1.03-0.35-1.17-0.9
	c-0.19-0.72-0.48-1.4-0.83-2.06c-0.34-0.64-0.33-1.19,0.03-1.56c0.59-0.59,1.2-1.16,1.77-1.76c0.38-0.4,0.81-0.75,1.11-1.16
	c-1.24-1.26-2.46-2.5-3.69-3.75c-0.06,0.04-0.11,0.08-0.16,0.12c-0.9,0.9-1.8,1.8-2.69,2.71c-0.38,0.39-0.84,0.5-1.33,0.26
	c-0.72-0.35-1.44-0.7-2.19-0.93c-0.72-0.22-1.07-0.61-1.08-1.36c0-1.15-0.01-2.3,0.01-3.44c0.01-0.37-0.08-0.52-0.49-0.51
	c-1.45,0.02-2.91,0.02-4.36,0c-0.37,0-0.48,0.12-0.48,0.48c0.02,1.2,0.01,2.4,0,3.6c0,0.6-0.38,1.07-0.91,1.21
	c-0.65,0.17-1.29,0.41-1.88,0.75c-0.88,0.5-1.26,0.47-1.97-0.24c-0.45-0.45-0.91-0.9-1.35-1.36c-0.42-0.44-0.83-0.89-1.26-1.34
	c-1.3,1.32-2.52,2.56-3.75,3.81c0.08,0.09,0.17,0.22,0.28,0.33c0.83,0.83,1.65,1.68,2.5,2.49C21.26,25,21.35,25.31,21.36,25.72z"/>
</svg>
