<?xml version="1.0" encoding="utf-8"?>
<!-- Generator: Adobe Adobe Illustrator 24.2.0, SVG Export Plug-In . SVG Version: 6.00 Build 0)  -->
<svg version="1.1" id="Layer_1" xmlns="http://www.w3.org/2000/svg" xmlns:xlink="http://www.w3.org/1999/xlink" x="0px" y="0px"
	 width="64px" height="64px" viewBox="0 0 64 64" style="enable-background:new 0 0 64 64;" xml:space="preserve">
<style type="text/css">
	.st0{fill:none;stroke:#000000;stroke-width:0.5;stroke-miterlimit:10;}
</style>
<path class="st0" d="M38.2,10.27c0,1.29,0.01,2.53-0.01,3.77c-0.01,0.34,0.1,0.54,0.42,0.66c0.32,0.11,0.63,0.24,0.94,0.38
	c0.32,0.14,0.52-0.04,0.71-0.24c0.9-0.9,1.8-1.8,2.69-2.7c0.26-0.26,0.55-0.51,0.78-0.8c0.5-0.64,1.66-0.69,2.3-0.03
	c1.87,1.92,3.78,3.81,5.67,5.71c0.28,0.28,0.53,0.58,0.84,0.82c0.77,0.61,0.67,1.84-0.05,2.49c-1.17,1.07-2.25,2.24-3.39,3.36
	c-0.32,0.31-0.24,0.57-0.15,0.98c0.22,0.95,0.8,1.02,1.6,0.99c1.41-0.06,2.82-0.02,4.23-0.02c1.1,0,1.64,0.61,1.67,1.72
	c0.1,3.03-0.09,6.05-0.02,9.08c0.03,1.3-0.44,1.78-1.76,1.78c-1.58,0-3.16,0.01-4.74-0.01c-0.41-0.01-0.64,0.15-0.77,0.51
	c-0.1,0.27-0.21,0.53-0.32,0.8c-0.12,0.27,0,0.44,0.18,0.63c1.2,1.2,2.39,2.41,3.59,3.61c0.67,0.67,0.64,1.62-0.03,2.28
	c-1.66,1.64-3.29,3.29-4.94,4.94c-0.56,0.56-1.15,1.1-1.69,1.67c-0.56,0.59-1.53,0.61-2.15-0.03c-1.28-1.33-2.62-2.61-3.92-3.91
	c-0.46,0.19-0.85,0.4-1.27,0.51c-0.36,0.1-0.43,0.29-0.43,0.62c0.01,1.72-0.04,3.44,0.02,5.15c0.03,0.9-0.67,1.49-1.44,1.5
	c-3.16,0.02-6.32,0.02-9.48,0c-0.95-0.01-1.49-0.6-1.49-1.56c-0.01-1.56-0.05-3.13,0.02-4.69c0.03-0.68-0.21-0.99-0.81-1.21
	c-0.83-0.3-0.95-0.29-1.55,0.32c-1.12,1.15-2.25,2.28-3.39,3.41c-0.52,0.51-1.4,0.48-1.93-0.05c-1.45-1.43-2.88-2.88-4.32-4.32
	c-0.78-0.78-1.56-1.56-2.35-2.33c-0.73-0.71-0.75-1.65-0.04-2.37c1.16-1.17,2.32-2.34,3.49-3.49c0.26-0.26,0.27-0.45,0.18-0.82
	c-0.24-1.02-0.81-1.25-1.79-1.18c-1.3,0.1-2.61,0.03-3.92,0.02c-1.41-0.01-1.9-0.49-1.9-1.92c0-2.52,0.03-5.03,0.05-7.55
	c0.01-0.53-0.06-1.05-0.01-1.58c0.09-1.01,0.62-1.53,1.65-1.53c1.61,0,3.23-0.02,4.84,0.01c0.44,0.01,0.7-0.13,0.83-0.55
	c0.09-0.27,0.2-0.54,0.33-0.8c0.1-0.21-0.01-0.31-0.14-0.43c-0.81-0.81-1.61-1.63-2.41-2.44c-0.47-0.48-0.96-0.94-1.41-1.45
	c-0.47-0.53-0.45-1.39,0.03-1.9c0.67-0.72,1.36-1.4,2.05-2.1c1.53-1.54,3.1-3.05,4.59-4.63c0.62-0.65,1.79-0.65,2.38-0.01
	c1.1,1.2,2.3,2.31,3.44,3.47c0.3,0.3,0.55,0.26,0.94,0.18c1.06-0.23,1.19-0.9,1.14-1.83c-0.07-1.37-0.02-2.75-0.02-4.13
	c0-1.09,0.47-1.56,1.55-1.56c3.11,0,6.22,0,9.32,0c1.05,0,1.53,0.48,1.53,1.51C38.2,9.41,38.2,9.82,38.2,10.27z"/>
</svg>
